<mxfile host="app.diagrams.net" modified="2023-05-13T06:11:28.450Z" agent="Mozilla/5.0 (Windows NT 10.0; Win64; x64) AppleWebKit/537.36 (KHTML, like Gecko) Chrome/113.0.0.0 Safari/537.36" etag="j-aPTBqyKanrxWoqxxLO" version="21.2.9">
  <diagram name="Page-1" id="MqEHJxqcGR0iH7Ui8UXM">
    <mxGraphModel dx="568" dy="-788" grid="1" gridSize="10" guides="1" tooltips="1" connect="1" arrows="1" fold="1" page="1" pageScale="1" pageWidth="850" pageHeight="1100" math="0" shadow="0">
      <root>
        <mxCell id="0" />
        <mxCell id="1" parent="0" />
        <mxCell id="JPP7-0GU8lm2cm0_T6wu-94" style="edgeStyle=orthogonalEdgeStyle;rounded=0;orthogonalLoop=1;jettySize=auto;html=1;exitX=0.5;exitY=0;exitDx=0;exitDy=0;entryX=0.5;entryY=0;entryDx=0;entryDy=0;" edge="1" parent="1" source="JPP7-0GU8lm2cm0_T6wu-91" target="JPP7-0GU8lm2cm0_T6wu-92">
          <mxGeometry relative="1" as="geometry" />
        </mxCell>
        <mxCell id="JPP7-0GU8lm2cm0_T6wu-95" style="edgeStyle=orthogonalEdgeStyle;rounded=0;orthogonalLoop=1;jettySize=auto;html=1;exitX=0.5;exitY=0;exitDx=0;exitDy=0;entryX=0.5;entryY=0;entryDx=0;entryDy=0;" edge="1" parent="1" source="JPP7-0GU8lm2cm0_T6wu-91" target="JPP7-0GU8lm2cm0_T6wu-93">
          <mxGeometry relative="1" as="geometry" />
        </mxCell>
        <mxCell id="JPP7-0GU8lm2cm0_T6wu-91" value="binding_id" style="rounded=0;whiteSpace=wrap;html=1;fontStyle=5;fontFamily=Courier New;labelBackgroundColor=none;" vertex="1" parent="1">
          <mxGeometry x="60" y="2080" width="120" height="60" as="geometry" />
        </mxCell>
        <mxCell id="JPP7-0GU8lm2cm0_T6wu-96" style="edgeStyle=orthogonalEdgeStyle;rounded=0;orthogonalLoop=1;jettySize=auto;html=1;exitX=0.5;exitY=1;exitDx=0;exitDy=0;entryX=0.5;entryY=1;entryDx=0;entryDy=0;" edge="1" parent="1" source="JPP7-0GU8lm2cm0_T6wu-92" target="JPP7-0GU8lm2cm0_T6wu-91">
          <mxGeometry relative="1" as="geometry" />
        </mxCell>
        <mxCell id="JPP7-0GU8lm2cm0_T6wu-97" style="edgeStyle=orthogonalEdgeStyle;rounded=0;orthogonalLoop=1;jettySize=auto;html=1;exitX=0.5;exitY=1;exitDx=0;exitDy=0;entryX=0.5;entryY=1;entryDx=0;entryDy=0;" edge="1" parent="1" source="JPP7-0GU8lm2cm0_T6wu-92" target="JPP7-0GU8lm2cm0_T6wu-93">
          <mxGeometry relative="1" as="geometry" />
        </mxCell>
        <mxCell id="JPP7-0GU8lm2cm0_T6wu-92" value="binding_type" style="rounded=0;whiteSpace=wrap;html=1;fontFamily=Courier New;labelBackgroundColor=none;" vertex="1" parent="1">
          <mxGeometry x="180" y="2080" width="120" height="60" as="geometry" />
        </mxCell>
        <mxCell id="JPP7-0GU8lm2cm0_T6wu-93" value="description" style="rounded=0;whiteSpace=wrap;html=1;fontFamily=Courier New;labelBackgroundColor=none;" vertex="1" parent="1">
          <mxGeometry x="300" y="2080" width="120" height="60" as="geometry" />
        </mxCell>
      </root>
    </mxGraphModel>
  </diagram>
</mxfile>
